<svg xmlns="http://www.w3.org/2000/svg" width="17" height="10" viewBox="0 0 17 10" fill="none">
<path fill-rule="evenodd" clip-rule="evenodd" d="M13.1037 0.292931C13.299 0.488193 13.299 0.804776 13.1037 1.00004L6.59191 7.51187L7.51941 8.43938L15.6659 0.292931C15.8611 0.0976688 16.1777 0.0976688 16.373 0.292931C16.5682 0.488193 16.5682 0.804776 16.373 1.00004L7.51941 9.85359L5.8848 8.21898L4.25019 9.85359L0.627404 6.23081C0.432141 6.03554 0.432141 5.71896 0.627404 5.5237C0.822666 5.32844 1.13925 5.32844 1.33451 5.5237L4.25019 8.43938L5.17769 7.51187L3.89663 6.23081C3.70136 6.03554 3.70136 5.71896 3.89663 5.5237C4.09189 5.32844 4.40847 5.32844 4.60373 5.5237L5.8848 6.80477L12.3966 0.292931C12.5919 0.0976688 12.9085 0.0976688 13.1037 0.292931Z" fill="#E8A511"/>
</svg>