<svg xmlns="http://www.w3.org/2000/svg" width="154" height="207" viewBox="0 0 154 207" fill="none">
<path d="M-51 19.2034C-35.4868 10.2468 -18.3613 4.43347 -0.601313 2.09532C17.1586 -0.242804 35.2052 0.940037 52.508 5.57631C69.8108 10.2126 86.031 18.2115 100.243 29.1164C114.454 40.0212 126.378 53.6185 135.335 69.1317C144.292 84.645 150.105 101.771 152.443 119.53C154.781 137.29 153.598 155.337 148.962 172.64C144.326 189.943 136.327 206.163 125.422 220.374C114.517 234.586 100.92 246.51 85.4067 255.467L63.003 216.662C73.4204 210.648 82.5512 202.641 89.874 193.097C97.1968 183.554 102.568 172.662 105.682 161.043C108.795 149.424 109.589 137.305 108.019 125.379C106.449 113.453 102.545 101.953 96.5307 91.5355C90.5162 81.118 82.5087 71.9873 72.9655 64.6645C63.4222 57.3417 52.5301 51.9703 40.911 48.857C29.2919 45.7436 17.1733 44.9494 5.24724 46.5194C-6.67885 48.0895 -18.1789 51.9933 -28.5963 58.0078L-51 19.2034Z" fill="url(#paint0_linear_14002_22178)"/>
<defs>
<linearGradient id="paint0_linear_14002_22178" x1="135.335" y1="69.1317" x2="17.2033" y2="137.335" gradientUnits="userSpaceOnUse">
<stop stop-color="#FFF6C8"/>
<stop offset="1" stop-color="#E8A511"/>
</linearGradient>
</defs>
</svg>