<svg width="44" height="44" viewBox="0 0 44 44" fill="none" xmlns="http://www.w3.org/2000/svg">
<path d="M21.6777 42.0588C10.4392 42.0588 1.29395 32.9151 1.29395 21.6751C1.29395 10.4365 10.4392 1.29413 21.6777 1.29413C32.9163 1.29413 42.0615 10.4365 42.0615 21.6751C42.0615 32.9151 32.9163 42.0588 21.6777 42.0588ZM21.6777 5.49781C12.7573 5.49781 5.50048 12.7546 5.50048 21.6751C5.50048 30.597 12.7573 37.8537 21.6777 37.8537C30.5982 37.8537 37.855 30.597 37.855 21.6751C37.855 12.7546 30.5982 5.49781 21.6777 5.49781Z" fill="#191B1F"/>
<path d="M12.9522 28.6363C14.1495 29.3784 15.6337 30.2703 17.0867 30.2717C18.4734 30.2746 18.9963 29.0364 19.327 27.9126C19.4076 27.6469 19.4769 27.3854 19.5885 27.1592C19.5857 27.162 19.7186 26.9571 19.7327 26.9218C19.7723 26.885 19.8288 26.8327 19.85 26.8101C19.8854 26.7932 19.9221 26.7748 19.9461 26.7621C20.0055 26.7508 20.0776 26.738 20.0875 26.731C20.178 26.7296 20.2671 26.7338 20.3519 26.7394C20.5059 26.7521 20.5257 26.7536 20.4055 26.7437C20.4988 26.7621 20.5921 26.7804 20.684 26.803C20.9964 26.8751 21.2989 26.9797 21.5943 27.0886C21.631 27.1013 21.7837 27.1663 21.8671 27.2002C21.9066 27.2186 21.9448 27.2356 21.9844 27.2539C22.4197 27.4688 22.8438 27.7204 23.2721 27.9522C24.2601 28.4936 25.3174 29.0491 26.434 29.2484C27.7556 29.483 28.9472 29.1339 29.7275 27.9974C30.5628 26.779 30.3791 25.0008 29.5946 23.8206C28.8681 22.7294 27.7358 22.0736 26.7846 21.2057C25.863 20.359 24.947 19.4615 24.2855 18.3915C23.9915 17.9165 23.8205 17.4713 23.8121 17.0303C23.8121 16.8776 23.8488 16.7447 23.9505 16.5681C23.9859 16.5073 24.0042 16.4762 24.0099 16.4564C24.0071 16.4663 24.0156 16.4705 24.0608 16.4352C24.0721 16.431 24.1032 16.4098 24.1626 16.3744C24.1781 16.3659 24.1951 16.3631 24.2191 16.356C24.2516 16.3447 24.2757 16.3391 24.2912 16.3306C24.3124 16.3306 24.3393 16.3306 24.3789 16.3292C24.3902 16.3292 24.7082 16.3546 24.6304 16.3362C24.8707 16.3829 25.0629 16.455 25.1803 16.5101C25.675 16.7447 26.0058 17.0359 26.1895 17.3384C27.1323 18.8748 28.8794 21.6947 31.0335 20.9216V16.1977C31.0335 14.4761 29.637 13.0782 27.9168 13.0782H15.4386C13.7184 13.0782 12.3247 14.4761 12.3247 16.1977V28.2278C12.5325 28.3664 12.7416 28.5063 12.9522 28.6363Z" fill="#191B1F"/>
</svg>
