<svg width="35" height="18" viewBox="0 0 35 18" fill="none" xmlns="http://www.w3.org/2000/svg">
<path d="M1.2988 2.80079L33.7011 2.80079C34.2973 2.80079 34.7812 2.31687 34.7812 1.72074C34.7812 1.12451 34.2972 0.640686 33.7011 0.640686L1.2988 0.640686C0.702573 0.640686 0.21875 1.1246 0.21875 1.72074C0.21875 2.31687 0.702663 2.80079 1.2988 2.80079Z" fill="black"/>
<path d="M33.7011 8.2012L1.2988 8.2012C0.702573 8.2012 0.21875 8.68511 0.21875 9.28125C0.21875 9.87739 0.702663 10.3613 1.2988 10.3613L33.7011 10.3613C34.2973 10.3613 34.7812 9.87739 34.7812 9.28125C34.7812 8.68511 34.2973 8.2012 33.7011 8.2012Z" fill="black"/>
<path d="M33.7011 15.7617L12.0996 15.7617C11.5034 15.7617 11.0195 16.2457 11.0195 16.8418C11.0195 17.438 11.5034 17.9218 12.0996 17.9218L33.7011 17.9218C34.2973 17.9218 34.7812 17.4379 34.7812 16.8418C34.7813 16.2456 34.2973 15.7617 33.7011 15.7617Z" fill="black"/>
</svg>
