<svg width="45" height="50" viewBox="0 0 45 50" fill="none" xmlns="http://www.w3.org/2000/svg">
<g id="Diamond">
<path id="Vector" d="M8.03853 13.1952L0.752059 23.8294C0.575057 24.0877 0.578872 24.447 0.789443 24.7072L20.8079 49.1709C21.7131 50.2776 23.4038 50.2753 24.3075 49.1713L36.5126 34.2554C36.769 33.9422 36.7228 33.4807 36.4096 33.2243C36.0965 32.9683 35.6353 33.0145 35.3789 33.3277L25.162 45.8132L30.2409 24.9758H42.213L37.5865 30.6299C37.3301 30.9427 37.3763 31.4043 37.6895 31.6607C38.0027 31.9166 38.4643 31.8705 38.7202 31.5577L44.3256 24.7072C44.5376 24.4451 44.5388 24.085 44.3629 23.8294L37.0765 13.1952C36.357 12.1446 35.2435 11.7208 34.8319 11.6704L23.4423 10.2876C22.8903 10.1533 22.2685 10.1427 21.6727 10.2876L10.2835 11.6704C9.86806 11.7212 8.75531 12.1492 8.03853 13.1952ZM9.24703 14.0234L9.24741 14.023C9.25046 14.0184 9.2539 14.0146 9.25695 14.0104L14.2382 23.5109H2.74639L9.24703 14.0234ZM2.90241 24.9758H14.8741L19.953 45.8132L2.90241 24.9758ZM35.8584 14.0104C35.8615 14.015 35.8649 14.0188 35.868 14.0234L39.2131 18.905L42.369 23.5109H30.8768L35.8584 14.0104ZM34.6618 13.1376L29.6984 22.603L24.6275 11.9073C35.2881 13.2017 34.5641 13.1074 34.6618 13.1376ZM22.2197 11.6727C22.4455 11.6388 22.663 11.638 22.8953 11.6727L28.5079 23.5109H24.2667C23.8619 23.5109 23.5343 23.839 23.5343 24.2437C23.5343 24.6481 23.8619 24.9761 24.2667 24.9761H28.7329L23.0288 48.3786C22.7522 48.585 22.3635 48.5854 22.0862 48.3786L16.3821 24.9761H20.8487C21.2531 24.9761 21.5811 24.6481 21.5811 24.2437C21.5811 23.839 21.2531 23.5109 20.8487 23.5109H16.6075L22.2197 11.6727ZM10.5116 13.1185L20.4874 11.9073L15.4166 22.603L10.4532 13.1376C10.4727 13.1315 10.4918 13.1238 10.5116 13.1185Z" fill="white"/>
<path id="Vector_2" d="M40.7149 6.78418C40.3105 6.78418 39.9824 7.11224 39.9824 7.5166V8.61867H38.8804C38.4756 8.61867 38.1479 8.94674 38.1479 9.3511C38.1479 9.75584 38.4756 10.0839 38.8804 10.0839H39.9824V11.186C39.9824 11.5903 40.3105 11.9184 40.7149 11.9184C41.1196 11.9184 41.4473 11.5903 41.4473 11.186V10.0839H42.5494C42.9541 10.0839 43.2822 9.75584 43.2822 9.3511C43.2822 8.94674 42.9541 8.61867 42.5494 8.61867H41.4473V7.5166C41.4473 7.11224 41.1196 6.78418 40.7149 6.78418Z" fill="white"/>
<path id="Vector_3" d="M5.9385 37.7847C5.53376 37.7847 5.20607 38.1127 5.20607 38.5171V39.6192H4.10401C3.69927 39.6192 3.37158 39.9472 3.37158 40.3516C3.37158 40.7563 3.69927 41.0844 4.10401 41.0844H5.20607V42.1865C5.20607 42.5908 5.53376 42.9189 5.9385 42.9189C6.34324 42.9189 6.67092 42.5908 6.67092 42.1865V41.0844H7.77299C8.17773 41.0844 8.50542 40.7563 8.50542 40.3516C8.50542 39.9472 8.17773 39.6192 7.77299 39.6192H6.67092V38.5171C6.67092 38.1127 6.34286 37.7847 5.9385 37.7847Z" fill="white"/>
<path id="Vector_4" d="M22.5576 6.34729C22.962 6.34729 23.29 6.01961 23.29 5.61487V0.732424C23.29 0.327683 22.962 0 22.5576 0C22.1529 0 21.8252 0.327683 21.8252 0.732424V5.61487C21.8252 6.01961 22.1529 6.34729 22.5576 6.34729Z" fill="white"/>
<path id="Vector_5" d="M28.953 7.77809L31.8789 3.86954C32.1215 3.54568 32.0555 3.08677 31.7317 2.84415C31.4078 2.60154 30.9485 2.66791 30.7063 2.99178L27.7804 6.89995C27.5382 7.22382 27.6038 7.68311 27.9277 7.92534C28.2515 8.16757 28.7108 8.10158 28.953 7.77809Z" fill="white"/>
<path id="Vector_6" d="M13.3834 2.84423C13.0595 3.08685 12.9935 3.54576 13.2361 3.86962L16.162 7.77817C16.4046 8.10204 16.8635 8.16765 17.1874 7.92542C17.5113 7.68319 17.5773 7.2239 17.3347 6.90003L14.4088 2.99186C14.1662 2.66799 13.7073 2.602 13.3834 2.84423Z" fill="white"/>
</g>
</svg>
