<svg width="95" height="157" viewBox="0 0 95 157" fill="none" xmlns="http://www.w3.org/2000/svg">
<g opacity="0.3" clip-path="url(#clip0_14040_10660)">
<circle cx="8.5" cy="8.5" r="8.5" fill="#E8A511"/>
<circle cx="8.5" cy="36.5" r="8.5" fill="#E8A511"/>
<circle cx="8.5" cy="64.5" r="8.5" fill="#E8A511"/>
<circle cx="8.5" cy="92.5" r="8.5" fill="#E8A511"/>
<circle cx="8.5" cy="120.5" r="8.5" fill="#E8A511"/>
<circle cx="8.5" cy="148.5" r="8.5" fill="#E8A511"/>
</g>
<g opacity="0.3" clip-path="url(#clip1_14040_10660)">
<circle cx="33.5" cy="8.5" r="8.5" fill="#E8A511"/>
<circle cx="33.5" cy="36.5" r="8.5" fill="#E8A511"/>
<circle cx="33.5" cy="64.5" r="8.5" fill="#E8A511"/>
<circle cx="33.5" cy="92.5" r="8.5" fill="#E8A511"/>
<circle cx="33.5" cy="120.5" r="8.5" fill="#E8A511"/>
<circle cx="33.5" cy="148.5" r="8.5" fill="#E8A511"/>
</g>
<g opacity="0.3" clip-path="url(#clip2_14040_10660)">
<circle cx="58.5" cy="8.5" r="8.5" fill="#E8A511"/>
<circle cx="58.5" cy="36.5" r="8.5" fill="#E8A511"/>
<circle cx="58.5" cy="64.5" r="8.5" fill="#E8A511"/>
<circle cx="58.5" cy="92.5" r="8.5" fill="#E8A511"/>
<circle cx="58.5" cy="120.5" r="8.5" fill="#E8A511"/>
<circle cx="58.5" cy="148.5" r="8.5" fill="#E8A511"/>
</g>
<g opacity="0.3" clip-path="url(#clip3_14040_10660)">
<circle cx="83.5" cy="8.5" r="8.5" fill="#E8A511"/>
<circle cx="83.5" cy="36.5" r="8.5" fill="#E8A511"/>
<circle cx="83.5" cy="64.5" r="8.5" fill="#E8A511"/>
<circle cx="83.5" cy="92.5" r="8.5" fill="#E8A511"/>
<circle cx="83.5" cy="120.5" r="8.5" fill="#E8A511"/>
<circle cx="83.5" cy="148.5" r="8.5" fill="#E8A511"/>
</g>
<defs>
<clipPath id="clip0_14040_10660">
<rect width="17" height="157" fill="white"/>
</clipPath>
<clipPath id="clip1_14040_10660">
<rect width="17" height="157" fill="white" transform="translate(25)"/>
</clipPath>
<clipPath id="clip2_14040_10660">
<rect width="17" height="157" fill="white" transform="translate(50)"/>
</clipPath>
<clipPath id="clip3_14040_10660">
<rect width="17" height="157" fill="white" transform="translate(75)"/>
</clipPath>
</defs>
</svg>
