<svg width="51" height="44" viewBox="0 0 51 44" fill="none" xmlns="http://www.w3.org/2000/svg">
<g id="Group">
<path id="Vector" d="M50.4015 21.507C47.9702 17.3042 43.6046 14.5752 38.8141 14.1869C40.8732 9.84402 40.6925 4.69872 38.2684 0.491796C38.1376 0.264843 37.8956 0.125 37.6337 0.125C32.7778 0.129102 28.2315 2.5454 25.4999 6.49999C22.7684 2.5454 18.2221 0.129102 13.3668 0.125C13.1043 0.125 12.8623 0.264843 12.7315 0.491796C10.3074 4.69882 10.1268 9.84402 12.1859 14.1869C7.39539 14.5751 3.02968 17.3041 0.598437 21.507C0.467188 21.7338 0.467188 22.0136 0.598437 22.2406C2.64882 25.7848 6.10448 28.3369 10.0793 29.2423C10.474 29.3324 10.8663 29.0853 10.9561 28.691C11.046 28.2965 10.7991 27.9039 10.4048 27.8141C6.96415 27.0303 3.95527 24.8757 2.08672 21.8738C4.42987 18.11 8.53123 15.7462 12.958 15.6087C14.8079 18.6022 17.6622 20.8018 20.9382 21.8738C17.5267 22.99 14.572 25.3287 12.7332 28.5136C10.1103 33.0566 10.1098 38.7054 12.7317 43.2557C12.8625 43.4826 13.1045 43.6225 13.3664 43.6225C18.2223 43.6184 22.7686 41.2021 25.5001 37.2475C28.2317 41.2021 32.778 43.6184 37.6333 43.6225C37.8958 43.6225 38.1378 43.4826 38.2686 43.2557C40.6927 39.0486 40.8732 33.9034 38.8142 29.5606C43.6047 29.1724 47.9704 26.4434 50.4016 22.2405C50.5328 22.0137 50.5328 21.7338 50.4015 21.507ZM25.5 34.2644C23.9866 30.8457 23.9866 26.9165 25.5 23.4934C27.0135 26.9165 27.0135 30.8457 25.5 34.2644ZM25.5 9.48318C27.0135 12.9018 27.0135 16.831 25.5 20.2542C23.9866 16.831 23.9866 12.9018 25.5 9.48318ZM37.2068 1.59716C39.2946 5.50829 39.2911 10.2421 37.1968 14.1445C33.6794 14.2498 30.3473 15.6217 27.781 17.9229C28.4907 14.5499 28.0128 10.9782 26.3454 7.87947C28.6779 4.11454 32.7756 1.74453 37.2068 1.59716ZM36.2306 15.6785C34.0267 18.6984 30.624 20.663 26.9027 21.0639C29.1105 18.0417 32.5133 16.077 36.2306 15.6785ZM13.7933 1.59716C18.2245 1.74453 22.3222 4.11444 24.6547 7.87947C22.9872 10.9782 22.5093 14.5499 23.2191 17.9229C20.6528 15.6217 17.3208 14.2498 13.8033 14.1445C11.709 10.2422 11.7054 5.50829 13.7933 1.59716ZM14.7695 15.6785C18.4869 16.077 21.8897 18.0417 24.0974 21.0639C20.3761 20.663 16.9733 18.6984 14.7695 15.6785ZM24.0974 22.6836C21.8897 25.7059 18.4869 27.6705 14.7695 28.0691C16.9733 25.0492 20.3761 23.0845 24.0974 22.6836ZM13.7933 42.1504C11.7054 38.2393 11.709 33.5055 13.8033 29.6031C17.3207 29.4978 20.6528 28.1258 23.2191 25.8247C22.5094 29.1978 22.9873 32.7695 24.6547 35.8682C22.3222 39.633 18.2245 42.003 13.7933 42.1504ZM37.2068 42.1504C32.7756 42.003 28.6779 39.6331 26.3454 35.8681C28.0129 32.7694 28.4908 29.1977 27.781 25.8246C30.3473 28.1257 33.6793 29.4978 37.1968 29.603C39.2911 33.5054 39.2946 38.2393 37.2068 42.1504ZM26.9027 22.6836C30.624 23.0845 34.0267 25.0492 36.2306 28.0691C32.5133 27.6705 29.1105 25.7059 26.9027 22.6836ZM38.0421 28.1389C36.1922 25.1454 33.3379 22.9457 30.0618 21.8738C33.3379 20.8019 36.1922 18.6022 38.0421 15.6087C42.4689 15.7461 46.5702 18.11 48.9134 21.8738C46.5702 25.6375 42.4689 28.0014 38.0421 28.1389Z" fill="white"/>
</g>
</svg>
